<svg width="526" height="136" viewBox="0 0 526 136" fill="none" xmlns="http://www.w3.org/2000/svg">
<rect y="8.19025" width="104.296" height="96" rx="9" fill="#9F7AEA"/>
<path d="M58.7654 48.2485H66.4288C66.318 41.5084 60.7782 36.855 52.3578 36.855C44.0666 36.855 37.9913 41.4346 38.0282 48.3039C38.0098 53.8806 41.943 57.0752 48.3322 58.6079L52.4501 59.642C56.568 60.6391 58.8578 61.8209 58.8762 64.3692C58.8578 67.1391 56.2356 69.0226 52.1731 69.0226C48.0183 69.0226 45.0268 67.1022 44.7683 63.3167H37.0311C37.2342 71.4971 43.0879 75.7258 52.2654 75.7258C61.4984 75.7258 66.9274 71.3124 66.9458 64.3877C66.9274 58.0908 62.1816 54.7485 55.6078 53.2712L52.2101 52.4587C48.9231 51.7016 46.1717 50.4829 46.2271 47.7684C46.2271 45.3309 48.3876 43.5397 52.3024 43.5397C56.1248 43.5397 58.47 45.2755 58.7654 48.2485Z" fill="white"/>
<rect x="98.6349" y="4.30739" width="110.296" height="102" rx="12" transform="rotate(15.5 98.6349 4.30739)" fill="#9F7AEA" stroke="white" stroke-width="6"/>
<path d="M118.821 82.5476L126.526 84.6843L129.398 74.3281L134.472 70.7526L140.299 88.5039L149.517 91.0601L141.414 67.1399L159.463 54.5729L150.228 52.0118L132.657 64.4431L132.177 64.3099L136.633 48.2416L128.928 46.1048L118.821 82.5476Z" fill="white"/>
<path d="M246.951 62.0582H254.614C254.504 55.3182 248.964 50.6648 240.543 50.6648C232.252 50.6648 226.177 55.2443 226.214 62.1136C226.195 67.6903 230.129 70.8849 236.518 72.4176L240.636 73.4517C244.754 74.4489 247.043 75.6307 247.062 78.179C247.043 80.9489 244.421 82.8324 240.359 82.8324C236.204 82.8324 233.212 80.9119 232.954 77.1264H225.217C225.42 85.3068 231.273 89.5355 240.451 89.5355C249.684 89.5355 255.113 85.1222 255.131 78.1974C255.113 71.9006 250.367 68.5582 243.793 67.081L240.396 66.2685C237.109 65.5114 234.357 64.2926 234.413 61.5781C234.413 59.1406 236.573 57.3494 240.488 57.3494C244.31 57.3494 246.656 59.0852 246.951 62.0582ZM260.362 89H268.228V71.9744C268.228 68.8352 270.223 66.7486 272.845 66.7486C275.43 66.7486 277.166 68.5213 277.166 71.3097V89H284.792V71.679C284.792 68.7429 286.473 66.7486 289.335 66.7486C291.846 66.7486 293.73 68.3182 293.73 71.4759V89H301.578V69.9247C301.578 63.7756 297.922 60.267 292.64 60.267C288.485 60.267 285.254 62.3906 284.091 65.6406H283.795C282.89 62.3537 279.991 60.267 276.095 60.267C272.272 60.267 269.373 62.2983 268.191 65.6406H267.859V60.6364H260.362V89ZM315.88 89.5355C320.071 89.5355 322.786 87.7074 324.171 85.0668H324.392V89H331.853V69.8693C331.853 63.1108 326.128 60.267 319.813 60.267C313.017 60.267 308.549 63.517 307.459 68.6875L314.735 69.2784C315.27 67.3949 316.951 66.0099 319.776 66.0099C322.453 66.0099 323.986 67.358 323.986 69.6847V69.7955C323.986 71.6236 322.047 71.8636 317.117 72.3438C311.503 72.8608 306.462 74.7443 306.462 81.0781C306.462 86.6918 310.469 89.5355 315.88 89.5355ZM318.132 84.1065C315.713 84.1065 313.978 82.9801 313.978 80.8196C313.978 78.6037 315.806 77.5142 318.576 77.1264C320.293 76.8864 323.1 76.4801 324.042 75.8523V78.8622C324.042 81.8352 321.586 84.1065 318.132 84.1065ZM361.555 68.7244C360.853 63.4986 356.643 60.267 349.478 60.267C342.221 60.267 337.439 63.6278 337.457 69.0938C337.439 73.3409 340.116 76.0923 345.656 77.2003L350.568 78.179C353.042 78.6776 354.169 79.5824 354.206 81.0043C354.169 82.6847 352.341 83.8849 349.589 83.8849C346.782 83.8849 344.917 82.6847 344.437 80.3764L336.7 80.7827C337.439 86.2116 342.055 89.554 349.571 89.554C356.92 89.554 362.183 85.8054 362.201 80.2102C362.183 76.1108 359.505 73.6548 354.002 72.5284L348.869 71.4943C346.228 70.9219 345.25 70.017 345.268 68.6506C345.25 66.9517 347.17 65.8438 349.608 65.8438C352.341 65.8438 353.966 67.3395 354.353 69.1676L361.555 68.7244ZM375.021 72.6023C375.04 68.946 377.274 66.804 380.487 66.804C383.682 66.804 385.565 68.8537 385.547 72.3438V89H393.413V70.9403C393.432 64.2926 389.517 60.267 383.608 60.267C379.305 60.267 376.425 62.2983 375.132 65.6406H374.8V51.1818H367.155V89H375.021V72.6023ZM399.604 89H407.471V79.9886L409.594 77.5696L417.331 89H426.546L415.485 72.9162L426.01 60.6364H416.98L407.895 71.402H407.471V51.1818H399.604V89ZM441.628 89.554C448.645 89.554 453.372 86.1378 454.48 80.875L447.205 80.3949C446.411 82.5554 444.379 83.6818 441.757 83.6818C437.824 83.6818 435.331 81.0781 435.331 76.8494V76.831H454.646V74.6705C454.646 65.0312 448.811 60.267 441.314 60.267C432.967 60.267 427.557 66.1946 427.557 74.9474C427.557 83.9403 432.893 89.554 441.628 89.554ZM435.331 71.956C435.497 68.7244 437.953 66.1392 441.443 66.1392C444.859 66.1392 447.223 68.5767 447.241 71.956H435.331ZM464.179 99.581C470.033 99.581 473.154 96.608 474.742 92.0653L485.766 60.6733L477.438 60.6364L471.51 81.4659H471.215L465.343 60.6364H457.07L467.245 89.8125L466.783 91.0128C465.675 93.5795 463.773 93.7642 461.003 92.8963L459.23 98.7869C460.357 99.2486 462.185 99.581 464.179 99.581ZM513.391 68.7244C512.689 63.4986 508.479 60.267 501.314 60.267C494.057 60.267 489.275 63.6278 489.293 69.0938C489.275 73.3409 491.952 76.0923 497.492 77.2003L502.404 78.179C504.878 78.6776 506.005 79.5824 506.042 81.0043C506.005 82.6847 504.176 83.8849 501.425 83.8849C498.618 83.8849 496.753 82.6847 496.273 80.3764L488.536 80.7827C489.275 86.2116 493.891 89.554 501.407 89.554C508.756 89.554 514.019 85.8054 514.037 80.2102C514.019 76.1108 511.341 73.6548 505.838 72.5284L500.705 71.4943C498.064 70.9219 497.086 70.017 497.104 68.6506C497.086 66.9517 499.006 65.8438 501.444 65.8438C504.176 65.8438 505.801 67.3395 506.189 69.1676L513.391 68.7244Z" fill="#1A202C"/>
</svg>
